<svg width="28" height="24" viewBox="0 0 28 24" fill="none" xmlns="http://www.w3.org/2000/svg">
<path d="M4.90604 0.839844C3.70019 0.839844 2.54373 1.31016 1.69106 2.14732C0.838397 2.98448 0.359375 4.11992 0.359375 5.30384V5.75248L13.9994 12.9641L27.6394 5.75471V5.30384C27.6394 4.11992 27.1604 2.98448 26.3077 2.14732C25.455 1.31016 24.2986 0.839844 23.0927 0.839844H4.90604ZM27.6394 8.28803L14.5382 15.2139C14.3726 15.3014 14.1874 15.3473 13.9994 15.3473C13.8113 15.3473 13.6262 15.3014 13.4606 15.2139L0.359375 8.28803V18.6958C0.359375 19.8798 0.838397 21.0152 1.69106 21.8524C2.54373 22.6895 3.70019 23.1598 4.90604 23.1598H23.0927C24.2986 23.1598 25.455 22.6895 26.3077 21.8524C27.1604 21.0152 27.6394 19.8798 27.6394 18.6958V8.28803Z" fill="white"/>
</svg>
