<svg width="62" height="62" viewBox="0 0 62 62" fill="none" xmlns="http://www.w3.org/2000/svg">
<path d="M31 0C22.7802 0 14.8897 3.26808 9.08203 9.07961C3.26838 14.8934 0.0016104 22.7781 0 31C0 39.2184 3.26953 47.1089 9.08203 52.9204C14.8897 58.7319 22.7802 62 31 62C39.2198 62 47.1103 58.7319 52.918 52.9204C58.7305 47.1089 62 39.2184 62 31C62 22.7816 58.7305 14.8911 52.918 9.07961C47.1103 3.26808 39.2198 0 31 0Z" fill="black"/>
<path d="M45.9851 38.654C45.7193 40.6826 44.7259 42.5457 43.1896 43.897C41.6533 45.2482 39.6785 45.9955 37.6325 46C25.7046 46 16 36.2954 16 24.3675C16.0045 22.3215 16.7518 20.3467 18.103 18.8104C19.4543 17.2741 21.3174 16.2807 23.346 16.0149C23.8632 15.9576 24.3852 16.0665 24.8363 16.3258C25.2873 16.5851 25.6441 16.9813 25.8548 17.4571L28.8744 24.5027C29.031 24.8684 29.0938 25.2674 29.0571 25.6636C29.0203 26.0597 28.8852 26.4404 28.664 26.7711L26.1703 30.5868C27.2995 32.8785 29.1602 34.7286 31.4582 35.8447L35.2289 33.336C35.5592 33.1133 35.9409 32.9785 36.3378 32.9443C36.7347 32.9102 37.1338 32.9777 37.4973 33.1407L44.5429 36.1452C45.0187 36.3559 45.4149 36.7127 45.6742 37.1637C45.9335 37.6148 46.0424 38.1368 45.9851 38.654ZM34.8383 19.5152C36.6676 20.015 38.335 20.9831 39.676 22.324C41.0169 23.665 41.985 25.3323 42.4848 27.1617C42.5511 27.4185 42.7005 27.6462 42.9098 27.8092C43.119 27.9723 43.3763 28.0615 43.6416 28.063C43.7483 28.0628 43.8545 28.0477 43.957 28.018C44.1098 27.978 44.2531 27.9079 44.3784 27.8119C44.5038 27.7158 44.6087 27.5957 44.687 27.4586C44.7654 27.3215 44.8156 27.1702 44.8347 27.0134C44.8538 26.8567 44.8414 26.6977 44.7983 26.5457C44.1974 24.3054 43.0177 22.2626 41.3775 20.6225C39.7374 18.9823 37.6946 17.8026 35.4542 17.2017C35.2975 17.1446 35.1305 17.1207 34.9641 17.1317C34.7976 17.1426 34.6352 17.1881 34.4872 17.2653C34.3393 17.3424 34.209 17.4495 34.1048 17.5797C34.0005 17.71 33.9244 17.8605 33.8815 18.0217C33.8386 18.1829 33.8297 18.3513 33.8554 18.5162C33.8812 18.681 33.9409 18.8387 34.0309 18.9792C34.1209 19.1197 34.2392 19.2399 34.3782 19.3322C34.5172 19.4245 34.6739 19.4868 34.8383 19.5152ZM33.5914 24.1572C34.6083 24.4355 35.5351 24.9739 36.2806 25.7194C37.0261 26.4649 37.5645 27.3917 37.8428 28.4086C37.9068 28.6667 38.0556 28.8958 38.2653 29.0593C38.4751 29.2227 38.7337 29.311 38.9996 29.3099C39.1015 29.3109 39.2029 29.2957 39.3 29.2648C39.4542 29.2265 39.599 29.1576 39.726 29.0623C39.8531 28.967 39.9597 28.8471 40.0395 28.7098C40.1194 28.5725 40.1708 28.4206 40.1909 28.2631C40.211 28.1055 40.1992 27.9455 40.1563 27.7926C39.7769 26.3647 39.0269 25.0625 37.9822 24.0178C36.9375 22.9731 35.6353 22.2231 34.2074 21.8437C34.0506 21.7866 33.8837 21.7627 33.7172 21.7737C33.5507 21.7846 33.3883 21.8301 33.2404 21.9072C33.0924 21.9844 32.9622 22.0915 32.8579 22.2217C32.7536 22.3519 32.6776 22.5025 32.6346 22.6637C32.5917 22.8249 32.5828 22.9933 32.6086 23.1582C32.6343 23.323 32.694 23.4807 32.7841 23.6212C32.8741 23.7617 32.9923 23.8819 33.1313 23.9742C33.2703 24.0664 33.427 24.1288 33.5914 24.1572Z" fill="white"/>
</svg>
