<svg width="62" height="62" viewBox="0 0 62 62" fill="none" xmlns="http://www.w3.org/2000/svg">
<path d="M31 0C22.7802 0 14.8897 3.26808 9.08203 9.07961C3.26838 14.8934 0.0016104 22.7781 0 31C0 39.2184 3.26953 47.1089 9.08203 52.9204C14.8897 58.7319 22.7802 62 31 62C39.2198 62 47.1103 58.7319 52.918 52.9204C58.7305 47.1089 62 39.2184 62 31C62 22.7816 58.7305 14.8911 52.918 9.07961C47.1103 3.26808 39.2198 0 31 0Z" fill="url(#paint0_linear_1_2024)"/>
<path d="M14.0366 30.6726C23.075 26.7356 29.1006 24.1398 32.1135 22.8858C40.7256 19.3048 42.513 18.6829 43.6803 18.6618C43.937 18.6577 44.5086 18.7211 44.8816 19.0227C45.1916 19.277 45.2788 19.6209 45.3224 19.8623C45.3611 20.1035 45.4144 20.6533 45.3708 21.0825C44.9058 25.9843 42.886 37.8796 41.8591 43.37C41.428 45.6931 40.5706 46.472 39.7424 46.548C37.9405 46.7137 36.5745 45.3584 34.8308 44.2157C32.1038 42.4269 30.5635 41.3138 27.9139 39.5686C24.8527 37.5517 26.8386 36.443 28.5824 34.6314C29.0377 34.1572 36.9717 26.9424 37.1219 26.288C37.1413 26.2062 37.1606 25.901 36.9766 25.7402C36.7974 25.5789 36.531 25.6341 36.3372 25.6777C36.0611 25.7397 31.7066 28.6208 23.2591 34.3204C22.0239 35.17 20.905 35.5842 19.8975 35.5624C18.7931 35.5386 16.6619 34.9366 15.078 34.4222C13.1405 33.791 11.5953 33.4573 11.731 32.3854C11.7988 31.8274 12.5689 31.2563 14.0366 30.6726Z" fill="white"/>
<defs>
<linearGradient id="paint0_linear_1_2024" x1="31" y1="0" x2="31" y2="62" gradientUnits="userSpaceOnUse">
<stop stop-color="#2AABEE"/>
<stop offset="1" stop-color="#229ED9"/>
</linearGradient>
</defs>
</svg>
