<svg width="62" height="62" viewBox="0 0 62 62" fill="none" xmlns="http://www.w3.org/2000/svg">
<path d="M1.32318 30.6289C1.32173 35.8381 2.69348 40.9245 5.30184 45.4078L1.07373 60.7256L16.8721 56.6153C21.2417 58.9757 26.1376 60.2125 31.1127 60.2128H31.1258C47.5498 60.2128 60.9192 46.9517 60.9263 30.6522C60.9294 22.754 57.8323 15.3269 52.2053 9.73925C46.5793 4.15204 39.0969 1.07343 31.1246 1.06982C14.6987 1.06982 1.33021 14.3301 1.32343 30.6289" fill="url(#paint0_linear_1_2019)"/>
<path d="M23.4142 17.8188C22.8364 16.5444 22.2282 16.5187 21.6787 16.4963C21.2287 16.4771 20.7143 16.4785 20.2004 16.4785C19.686 16.4785 18.8502 16.6705 18.1438 17.4359C17.4366 18.202 15.4438 20.0534 15.4438 23.8188C15.4438 27.5845 18.2079 31.2235 18.5933 31.7346C18.9791 32.2448 23.9294 40.2193 31.7695 43.2871C38.2853 45.8365 39.6113 45.3294 41.0254 45.2016C42.4398 45.0742 45.5892 43.3507 46.2317 41.5635C46.8747 39.7766 46.8747 38.2449 46.6819 37.9248C46.4891 37.6059 45.9747 37.4144 45.2034 37.0318C44.4317 36.649 40.6396 34.7974 39.9326 34.5419C39.2254 34.2867 38.7113 34.1594 38.1969 34.9257C37.6825 35.6909 36.2054 37.4144 35.7551 37.9248C35.3054 38.4364 34.8552 38.5001 34.084 38.1173C33.3122 37.7332 30.8281 36.926 27.8809 34.3189C25.5879 32.2902 24.0398 29.785 23.5898 29.0186C23.1398 28.2535 23.5416 27.8387 23.9284 27.4573C24.275 27.1144 24.7 26.5636 25.0861 26.1169C25.4707 25.6699 25.599 25.351 25.8562 24.8406C26.1137 24.3297 25.9848 23.8827 25.7923 23.4999C25.599 23.1171 24.1001 19.3322 23.4142 17.819" fill="white"/>
<defs>
<linearGradient id="paint0_linear_1_2019" x1="31" y1="60.7256" x2="31" y2="1.06982" gradientUnits="userSpaceOnUse">
<stop stop-color="#1FAF38"/>
<stop offset="1" stop-color="#60D669"/>
</linearGradient>
</defs>
</svg>
