<svg width="1088" height="459" viewBox="0 0 1088 459" fill="none" xmlns="http://www.w3.org/2000/svg">
<path d="M396.72 48.08V56H364.98V49.7L381.18 34.4C382.9 32.76 384.06 31.36 384.66 30.2C385.26 29 385.56 27.82 385.56 26.66C385.56 24.98 384.98 23.7 383.82 22.82C382.7 21.9 381.04 21.44 378.84 21.44C377 21.44 375.34 21.8 373.86 22.52C372.38 23.2 371.14 24.24 370.14 25.64L363.06 21.08C364.7 18.64 366.96 16.74 369.84 15.38C372.72 13.98 376.02 13.28 379.74 13.28C382.86 13.28 385.58 13.8 387.9 14.84C390.26 15.84 392.08 17.28 393.36 19.16C394.68 21 395.34 23.18 395.34 25.7C395.34 27.98 394.86 30.12 393.9 32.12C392.94 34.12 391.08 36.4 388.32 38.96L378.66 48.08H396.72Z" fill="#FA002C"/>
<path d="M385.56 292.66C388.24 292.66 390.68 293.2 392.88 294.28C395.08 295.36 396.82 296.9 398.1 298.9C399.38 300.86 400.02 303.14 400.02 305.74C400.02 308.54 399.32 311 397.92 313.12C396.52 315.24 394.6 316.88 392.16 318.04C389.76 319.16 387.08 319.72 384.12 319.72C378.24 319.72 373.64 317.92 370.32 314.32C367 310.72 365.34 305.58 365.34 298.9C365.34 294.14 366.24 290.06 368.04 286.66C369.84 283.26 372.34 280.68 375.54 278.92C378.78 277.16 382.52 276.28 386.76 276.28C389 276.28 391.14 276.54 393.18 277.06C395.26 277.54 397.02 278.24 398.46 279.16L394.86 286.3C392.78 284.9 390.16 284.2 387 284.2C383.44 284.2 380.62 285.24 378.54 287.32C376.46 289.4 375.34 292.42 375.18 296.38C377.66 293.9 381.12 292.66 385.56 292.66ZM383.58 312.46C385.66 312.46 387.34 311.9 388.62 310.78C389.94 309.66 390.6 308.14 390.6 306.22C390.6 304.3 389.94 302.78 388.62 301.66C387.34 300.5 385.62 299.92 383.46 299.92C381.34 299.92 379.6 300.52 378.24 301.72C376.88 302.88 376.2 304.38 376.2 306.22C376.2 308.06 376.86 309.56 378.18 310.72C379.5 311.88 381.3 312.46 383.58 312.46Z" fill="#FA002C"/>
<path d="M370.632 375.144C369.36 375.144 368.214 374.868 367.194 374.316C366.174 373.752 365.37 372.978 364.782 371.994C364.206 371.01 363.918 369.912 363.918 368.7C363.918 367.488 364.206 366.39 364.782 365.406C365.37 364.422 366.174 363.654 367.194 363.102C368.214 362.538 369.36 362.256 370.632 362.256C371.892 362.256 373.032 362.538 374.052 363.102C375.072 363.654 375.87 364.422 376.446 365.406C377.022 366.378 377.31 367.476 377.31 368.7C377.31 369.924 377.022 371.028 376.446 372.012C375.87 372.984 375.072 373.752 374.052 374.316C373.032 374.868 371.892 375.144 370.632 375.144ZM370.632 373.542C371.556 373.542 372.384 373.332 373.116 372.912C373.86 372.492 374.442 371.916 374.862 371.184C375.294 370.44 375.51 369.612 375.51 368.7C375.51 367.788 375.294 366.966 374.862 366.234C374.442 365.49 373.86 364.908 373.116 364.488C372.384 364.068 371.556 363.858 370.632 363.858C369.708 363.858 368.868 364.068 368.112 364.488C367.368 364.908 366.78 365.49 366.348 366.234C365.928 366.966 365.718 367.788 365.718 368.7C365.718 369.612 365.928 370.44 366.348 371.184C366.78 371.916 367.368 372.492 368.112 372.912C368.868 373.332 369.708 373.542 370.632 373.542ZM388.77 365.46V375H387.042V366.972H381.66V375H379.932V365.46H388.77ZM400.304 365.46V375H398.576V366.972H394.472L394.364 369.096C394.304 370.38 394.19 371.454 394.022 372.318C393.854 373.17 393.578 373.854 393.194 374.37C392.81 374.886 392.276 375.144 391.592 375.144C391.28 375.144 390.926 375.09 390.53 374.982L390.638 373.524C390.794 373.56 390.938 373.578 391.07 373.578C391.55 373.578 391.91 373.368 392.15 372.948C392.39 372.528 392.546 372.03 392.618 371.454C392.69 370.878 392.756 370.056 392.816 368.988L392.978 365.46H400.304ZM407.047 365.37C408.367 365.37 409.375 365.694 410.071 366.342C410.779 366.99 411.133 367.956 411.133 369.24V375H409.495V373.74C409.207 374.184 408.793 374.526 408.253 374.766C407.725 374.994 407.095 375.108 406.363 375.108C405.295 375.108 404.437 374.85 403.789 374.334C403.153 373.818 402.835 373.14 402.835 372.3C402.835 371.46 403.141 370.788 403.753 370.284C404.365 369.768 405.337 369.51 406.669 369.51H409.405V369.168C409.405 368.424 409.189 367.854 408.757 367.458C408.325 367.062 407.689 366.864 406.849 366.864C406.285 366.864 405.733 366.96 405.193 367.152C404.653 367.332 404.197 367.578 403.825 367.89L403.105 366.594C403.597 366.198 404.185 365.898 404.869 365.694C405.553 365.478 406.279 365.37 407.047 365.37ZM406.651 373.776C407.311 373.776 407.881 373.632 408.361 373.344C408.841 373.044 409.189 372.624 409.405 372.084V370.752H406.741C405.277 370.752 404.545 371.244 404.545 372.228C404.545 372.708 404.731 373.086 405.103 373.362C405.475 373.638 405.991 373.776 406.651 373.776ZM421.354 366.972H417.862V375H416.134V366.972H412.642V365.46H421.354V366.972ZM426.523 365.37C427.843 365.37 428.851 365.694 429.547 366.342C430.255 366.99 430.609 367.956 430.609 369.24V375H428.971V373.74C428.683 374.184 428.269 374.526 427.729 374.766C427.201 374.994 426.571 375.108 425.839 375.108C424.771 375.108 423.913 374.85 423.265 374.334C422.629 373.818 422.311 373.14 422.311 372.3C422.311 371.46 422.617 370.788 423.229 370.284C423.841 369.768 424.813 369.51 426.145 369.51H428.881V369.168C428.881 368.424 428.665 367.854 428.233 367.458C427.801 367.062 427.165 366.864 426.325 366.864C425.761 366.864 425.209 366.96 424.669 367.152C424.129 367.332 423.673 367.578 423.301 367.89L422.581 366.594C423.073 366.198 423.661 365.898 424.345 365.694C425.029 365.478 425.755 365.37 426.523 365.37ZM426.127 373.776C426.787 373.776 427.357 373.632 427.837 373.344C428.317 373.044 428.665 372.624 428.881 372.084V370.752H426.217C424.753 370.752 424.021 371.244 424.021 372.228C424.021 372.708 424.207 373.086 424.579 373.362C424.951 373.638 425.467 373.776 426.127 373.776ZM441.957 365.37C443.277 365.37 444.285 365.694 444.981 366.342C445.689 366.99 446.043 367.956 446.043 369.24V375H444.405V373.74C444.117 374.184 443.703 374.526 443.163 374.766C442.635 374.994 442.005 375.108 441.273 375.108C440.205 375.108 439.347 374.85 438.699 374.334C438.063 373.818 437.745 373.14 437.745 372.3C437.745 371.46 438.051 370.788 438.663 370.284C439.275 369.768 440.247 369.51 441.579 369.51H444.315V369.168C444.315 368.424 444.099 367.854 443.667 367.458C443.235 367.062 442.599 366.864 441.759 366.864C441.195 366.864 440.643 366.96 440.103 367.152C439.563 367.332 439.107 367.578 438.735 367.89L438.015 366.594C438.507 366.198 439.095 365.898 439.779 365.694C440.463 365.478 441.189 365.37 441.957 365.37ZM441.561 373.776C442.221 373.776 442.791 373.632 443.271 373.344C443.751 373.044 444.099 372.624 444.315 372.084V370.752H441.651C440.187 370.752 439.455 371.244 439.455 372.228C439.455 372.708 439.641 373.086 440.013 373.362C440.385 373.638 440.901 373.776 441.561 373.776ZM452.917 359.844H454.483L448.543 376.8H446.977L452.917 359.844ZM465.268 365.46V375H463.702V368.034L460.138 373.92H459.382L455.854 368.016V375H454.27V365.46H456.052L459.796 371.904L463.648 365.46H465.268ZM479.963 370.05C481.199 370.362 481.817 371.136 481.817 372.372C481.817 373.212 481.499 373.86 480.863 374.316C480.239 374.772 479.303 375 478.055 375H473.465V365.46H477.893C479.021 365.46 479.903 365.676 480.539 366.108C481.175 366.528 481.493 367.128 481.493 367.908C481.493 368.412 481.355 368.85 481.079 369.222C480.815 369.582 480.443 369.858 479.963 370.05ZM475.157 369.564H477.749C478.409 369.564 478.907 369.444 479.243 369.204C479.591 368.964 479.765 368.616 479.765 368.16C479.765 367.248 479.093 366.792 477.749 366.792H475.157V369.564ZM477.929 373.668C478.649 373.668 479.189 373.554 479.549 373.326C479.909 373.098 480.089 372.744 480.089 372.264C480.089 371.772 479.921 371.406 479.585 371.166C479.261 370.926 478.745 370.806 478.037 370.806H475.157V373.668H477.929ZM494.036 369.456H491.408V375H489.644V362.4H491.408V367.872H494.072L498.032 362.4H499.958L495.458 368.502L500.174 375H498.122L494.036 369.456ZM505.694 375.108C504.746 375.108 503.894 374.898 503.138 374.478C502.382 374.058 501.788 373.482 501.356 372.75C500.936 372.006 500.726 371.166 500.726 370.23C500.726 369.294 500.936 368.46 501.356 367.728C501.788 366.984 502.382 366.408 503.138 366C503.894 365.58 504.746 365.37 505.694 365.37C506.642 365.37 507.488 365.58 508.232 366C508.988 366.408 509.576 366.984 509.996 367.728C510.428 368.46 510.644 369.294 510.644 370.23C510.644 371.166 510.428 372.006 509.996 372.75C509.576 373.482 508.988 374.058 508.232 374.478C507.488 374.898 506.642 375.108 505.694 375.108ZM505.694 373.596C506.306 373.596 506.852 373.458 507.332 373.182C507.824 372.894 508.208 372.498 508.484 371.994C508.76 371.478 508.898 370.89 508.898 370.23C508.898 369.57 508.76 368.988 508.484 368.484C508.208 367.968 507.824 367.572 507.332 367.296C506.852 367.02 506.306 366.882 505.694 366.882C505.082 366.882 504.53 367.02 504.038 367.296C503.558 367.572 503.174 367.968 502.886 368.484C502.61 368.988 502.472 369.57 502.472 370.23C502.472 370.89 502.61 371.478 502.886 371.994C503.174 372.498 503.558 372.894 504.038 373.182C504.53 373.458 505.082 373.596 505.694 373.596ZM518.197 365.37C519.121 365.37 519.949 365.574 520.681 365.982C521.413 366.39 521.983 366.96 522.391 367.692C522.811 368.424 523.021 369.27 523.021 370.23C523.021 371.19 522.811 372.042 522.391 372.786C521.983 373.518 521.413 374.088 520.681 374.496C519.949 374.904 519.121 375.108 518.197 375.108C517.513 375.108 516.883 374.976 516.307 374.712C515.743 374.448 515.263 374.064 514.867 373.56V378.492H513.139V365.46H514.795V366.972C515.179 366.444 515.665 366.048 516.253 365.784C516.841 365.508 517.489 365.37 518.197 365.37ZM518.053 373.596C518.665 373.596 519.211 373.458 519.691 373.182C520.183 372.894 520.567 372.498 520.843 371.994C521.131 371.478 521.275 370.89 521.275 370.23C521.275 369.57 521.131 368.988 520.843 368.484C520.567 367.968 520.183 367.572 519.691 367.296C519.211 367.02 518.665 366.882 518.053 366.882C517.453 366.882 516.907 367.026 516.415 367.314C515.935 367.59 515.551 367.98 515.263 368.484C514.987 368.988 514.849 369.57 514.849 370.23C514.849 370.89 514.987 371.478 515.263 371.994C515.539 372.498 515.923 372.894 516.415 373.182C516.907 373.458 517.453 373.596 518.053 373.596ZM534.154 370.284C534.154 370.416 534.142 370.59 534.118 370.806H526.378C526.486 371.646 526.852 372.324 527.476 372.84C528.112 373.344 528.898 373.596 529.834 373.596C530.974 373.596 531.892 373.212 532.588 372.444L533.542 373.56C533.11 374.064 532.57 374.448 531.922 374.712C531.286 374.976 530.572 375.108 529.78 375.108C528.772 375.108 527.878 374.904 527.098 374.496C526.318 374.076 525.712 373.494 525.28 372.75C524.86 372.006 524.65 371.166 524.65 370.23C524.65 369.306 524.854 368.472 525.262 367.728C525.682 366.984 526.252 366.408 526.972 366C527.704 365.58 528.526 365.37 529.438 365.37C530.35 365.37 531.16 365.58 531.868 366C532.588 366.408 533.146 366.984 533.542 367.728C533.95 368.472 534.154 369.324 534.154 370.284ZM529.438 366.828C528.61 366.828 527.914 367.08 527.35 367.584C526.798 368.088 526.474 368.748 526.378 369.564H532.498C532.402 368.76 532.072 368.106 531.508 367.602C530.956 367.086 530.266 366.828 529.438 366.828ZM545.276 365.37C546.2 365.37 547.028 365.58 547.76 366C548.492 366.408 549.068 366.984 549.488 367.728C549.908 368.46 550.118 369.294 550.118 370.23C550.118 371.166 549.908 372.006 549.488 372.75C549.068 373.482 548.492 374.058 547.76 374.478C547.028 374.898 546.2 375.108 545.276 375.108C544.436 375.108 543.674 374.934 542.99 374.586C542.306 374.238 541.742 373.752 541.298 373.128C540.866 372.492 540.596 371.772 540.488 370.968H538.562V375H536.834V365.46H538.562V369.366H540.506C540.626 368.574 540.902 367.878 541.334 367.278C541.778 366.666 542.336 366.198 543.008 365.874C543.692 365.538 544.448 365.37 545.276 365.37ZM545.276 373.596C545.864 373.596 546.392 373.458 546.86 373.182C547.34 372.906 547.718 372.516 547.994 372.012C548.27 371.496 548.408 370.902 548.408 370.23C548.408 369.57 548.27 368.988 547.994 368.484C547.718 367.968 547.34 367.572 546.86 367.296C546.392 367.02 545.864 366.882 545.276 366.882C544.688 366.882 544.154 367.02 543.674 367.296C543.194 367.572 542.816 367.968 542.54 368.484C542.276 368.988 542.144 369.57 542.144 370.23C542.144 370.902 542.276 371.496 542.54 372.012C542.816 372.516 543.194 372.906 543.674 373.182C544.154 373.458 544.688 373.596 545.276 373.596Z" fill="black"/>
<path d="M370.992 105.43C371.784 105.646 372.402 106.024 372.846 106.564C373.29 107.092 373.512 107.728 373.512 108.472C373.512 109.216 373.272 109.87 372.792 110.434C372.324 110.986 371.694 111.412 370.902 111.712C370.122 112 369.27 112.144 368.346 112.144C367.506 112.144 366.672 112.018 365.844 111.766C365.016 111.514 364.26 111.136 363.576 110.632L364.206 109.3C364.758 109.732 365.376 110.056 366.06 110.272C366.744 110.488 367.434 110.596 368.13 110.596C369.138 110.596 369.984 110.386 370.668 109.966C371.352 109.534 371.694 108.946 371.694 108.202C371.694 107.566 371.436 107.08 370.92 106.744C370.404 106.396 369.678 106.222 368.742 106.222H365.934V104.764H368.616C369.42 104.764 370.044 104.602 370.488 104.278C370.944 103.942 371.172 103.48 371.172 102.892C371.172 102.232 370.878 101.71 370.29 101.326C369.702 100.942 368.958 100.75 368.058 100.75C367.47 100.75 366.87 100.834 366.258 101.002C365.658 101.17 365.088 101.422 364.548 101.758L363.972 100.282C364.608 99.922 365.28 99.652 365.988 99.472C366.696 99.292 367.404 99.202 368.112 99.202C369 99.202 369.816 99.34 370.56 99.616C371.304 99.892 371.892 100.294 372.324 100.822C372.768 101.35 372.99 101.968 372.99 102.676C372.99 103.312 372.81 103.87 372.45 104.35C372.102 104.83 371.616 105.19 370.992 105.43ZM379.625 102.37C380.945 102.37 381.953 102.694 382.649 103.342C383.357 103.99 383.711 104.956 383.711 106.24V112H382.073V110.74C381.785 111.184 381.371 111.526 380.831 111.766C380.303 111.994 379.673 112.108 378.941 112.108C377.873 112.108 377.015 111.85 376.367 111.334C375.731 110.818 375.413 110.14 375.413 109.3C375.413 108.46 375.719 107.788 376.331 107.284C376.943 106.768 377.915 106.51 379.247 106.51H381.983V106.168C381.983 105.424 381.767 104.854 381.335 104.458C380.903 104.062 380.267 103.864 379.427 103.864C378.863 103.864 378.311 103.96 377.771 104.152C377.231 104.332 376.775 104.578 376.403 104.89L375.683 103.594C376.175 103.198 376.763 102.898 377.447 102.694C378.131 102.478 378.857 102.37 379.625 102.37ZM379.229 110.776C379.889 110.776 380.459 110.632 380.939 110.344C381.419 110.044 381.767 109.624 381.983 109.084V107.752H379.319C377.855 107.752 377.123 108.244 377.123 109.228C377.123 109.708 377.309 110.086 377.681 110.362C378.053 110.638 378.569 110.776 379.229 110.776ZM390.531 107.968H388.551V112H386.823V102.46H388.551V106.492H390.567L393.663 102.46H395.517L391.899 107.05L395.769 112H393.735L390.531 107.968ZM405.77 102.46V112H404.042V103.972H399.938L399.83 106.096C399.77 107.38 399.656 108.454 399.488 109.318C399.32 110.17 399.044 110.854 398.66 111.37C398.276 111.886 397.742 112.144 397.058 112.144C396.746 112.144 396.392 112.09 395.996 111.982L396.104 110.524C396.26 110.56 396.404 110.578 396.536 110.578C397.016 110.578 397.376 110.368 397.616 109.948C397.856 109.528 398.012 109.03 398.084 108.454C398.156 107.878 398.222 107.056 398.282 105.988L398.444 102.46H405.77ZM417.554 102.37C418.478 102.37 419.306 102.58 420.038 103C420.77 103.408 421.346 103.984 421.766 104.728C422.186 105.46 422.396 106.294 422.396 107.23C422.396 108.166 422.186 109.006 421.766 109.75C421.346 110.482 420.77 111.058 420.038 111.478C419.306 111.898 418.478 112.108 417.554 112.108C416.714 112.108 415.952 111.934 415.268 111.586C414.584 111.238 414.02 110.752 413.576 110.128C413.144 109.492 412.874 108.772 412.766 107.968H410.84V112H409.112V102.46H410.84V106.366H412.784C412.904 105.574 413.18 104.878 413.612 104.278C414.056 103.666 414.614 103.198 415.286 102.874C415.97 102.538 416.726 102.37 417.554 102.37ZM417.554 110.596C418.142 110.596 418.67 110.458 419.138 110.182C419.618 109.906 419.996 109.516 420.272 109.012C420.548 108.496 420.686 107.902 420.686 107.23C420.686 106.57 420.548 105.988 420.272 105.484C419.996 104.968 419.618 104.572 419.138 104.296C418.67 104.02 418.142 103.882 417.554 103.882C416.966 103.882 416.432 104.02 415.952 104.296C415.472 104.572 415.094 104.968 414.818 105.484C414.554 105.988 414.422 106.57 414.422 107.23C414.422 107.902 414.554 108.496 414.818 109.012C415.094 109.516 415.472 109.906 415.952 110.182C416.432 110.458 416.966 110.596 417.554 110.596ZM432.493 102.46V112H430.765V108.148C429.733 108.628 428.707 108.868 427.687 108.868C426.499 108.868 425.581 108.592 424.933 108.04C424.285 107.488 423.961 106.66 423.961 105.556V102.46H425.689V105.448C425.689 106.108 425.893 106.606 426.301 106.942C426.721 107.278 427.303 107.446 428.047 107.446C428.887 107.446 429.793 107.236 430.765 106.816V102.46H432.493ZM444.47 107.284C444.47 107.416 444.458 107.59 444.434 107.806H436.694C436.802 108.646 437.168 109.324 437.792 109.84C438.428 110.344 439.214 110.596 440.15 110.596C441.29 110.596 442.208 110.212 442.904 109.444L443.858 110.56C443.426 111.064 442.886 111.448 442.238 111.712C441.602 111.976 440.888 112.108 440.096 112.108C439.088 112.108 438.194 111.904 437.414 111.496C436.634 111.076 436.028 110.494 435.596 109.75C435.176 109.006 434.966 108.166 434.966 107.23C434.966 106.306 435.17 105.472 435.578 104.728C435.998 103.984 436.568 103.408 437.288 103C438.02 102.58 438.842 102.37 439.754 102.37C440.666 102.37 441.476 102.58 442.184 103C442.904 103.408 443.462 103.984 443.858 104.728C444.266 105.472 444.47 106.324 444.47 107.284ZM439.754 103.828C438.926 103.828 438.23 104.08 437.666 104.584C437.114 105.088 436.79 105.748 436.694 106.564H442.814C442.718 105.76 442.388 105.106 441.824 104.602C441.272 104.086 440.582 103.828 439.754 103.828ZM447.151 102.46H448.879V106.51H454.315V102.46H456.043V112H454.315V108.004H448.879V112H447.151V102.46ZM459.403 102.46H461.131V109.408L466.981 102.46H468.547V112H466.819V105.052L460.987 112H459.403V102.46ZM480.523 107.284C480.523 107.416 480.511 107.59 480.487 107.806H472.747C472.855 108.646 473.221 109.324 473.845 109.84C474.481 110.344 475.267 110.596 476.203 110.596C477.343 110.596 478.261 110.212 478.957 109.444L479.911 110.56C479.479 111.064 478.939 111.448 478.291 111.712C477.655 111.976 476.941 112.108 476.149 112.108C475.141 112.108 474.247 111.904 473.467 111.496C472.687 111.076 472.081 110.494 471.649 109.75C471.229 109.006 471.019 108.166 471.019 107.23C471.019 106.306 471.223 105.472 471.631 104.728C472.051 103.984 472.621 103.408 473.341 103C474.073 102.58 474.895 102.37 475.807 102.37C476.719 102.37 477.529 102.58 478.237 103C478.957 103.408 479.515 103.984 479.911 104.728C480.319 105.472 480.523 106.324 480.523 107.284ZM475.807 103.828C474.979 103.828 474.283 104.08 473.719 104.584C473.167 105.088 472.843 105.748 472.747 106.564H478.867C478.771 105.76 478.441 105.106 477.877 104.602C477.325 104.086 476.635 103.828 475.807 103.828ZM374.376 136.488V140.214H372.756V138H364.782V140.214H363.144V136.488H363.648C364.26 136.452 364.68 136.02 364.908 135.192C365.136 134.364 365.292 133.194 365.376 131.682L365.52 128.46H372.918V136.488H374.376ZM366.96 131.808C366.912 133.008 366.81 134.004 366.654 134.796C366.51 135.576 366.24 136.14 365.844 136.488H371.19V129.972H367.05L366.96 131.808ZM380.713 138.108C379.765 138.108 378.913 137.898 378.157 137.478C377.401 137.058 376.807 136.482 376.375 135.75C375.955 135.006 375.745 134.166 375.745 133.23C375.745 132.294 375.955 131.46 376.375 130.728C376.807 129.984 377.401 129.408 378.157 129C378.913 128.58 379.765 128.37 380.713 128.37C381.661 128.37 382.507 128.58 383.251 129C384.007 129.408 384.595 129.984 385.015 130.728C385.447 131.46 385.663 132.294 385.663 133.23C385.663 134.166 385.447 135.006 385.015 135.75C384.595 136.482 384.007 137.058 383.251 137.478C382.507 137.898 381.661 138.108 380.713 138.108ZM380.713 136.596C381.325 136.596 381.871 136.458 382.351 136.182C382.843 135.894 383.227 135.498 383.503 134.994C383.779 134.478 383.917 133.89 383.917 133.23C383.917 132.57 383.779 131.988 383.503 131.484C383.227 130.968 382.843 130.572 382.351 130.296C381.871 130.02 381.325 129.882 380.713 129.882C380.101 129.882 379.549 130.02 379.057 130.296C378.577 130.572 378.193 130.968 377.905 131.484C377.629 131.988 377.491 132.57 377.491 133.23C377.491 133.89 377.629 134.478 377.905 134.994C378.193 135.498 378.577 135.894 379.057 136.182C379.549 136.458 380.101 136.596 380.713 136.596ZM395.178 129.972H389.886V138H388.158V128.46H395.178V129.972ZM400.612 138.108C399.664 138.108 398.812 137.898 398.056 137.478C397.3 137.058 396.706 136.482 396.274 135.75C395.854 135.006 395.644 134.166 395.644 133.23C395.644 132.294 395.854 131.46 396.274 130.728C396.706 129.984 397.3 129.408 398.056 129C398.812 128.58 399.664 128.37 400.612 128.37C401.56 128.37 402.406 128.58 403.15 129C403.906 129.408 404.494 129.984 404.914 130.728C405.346 131.46 405.562 132.294 405.562 133.23C405.562 134.166 405.346 135.006 404.914 135.75C404.494 136.482 403.906 137.058 403.15 137.478C402.406 137.898 401.56 138.108 400.612 138.108ZM400.612 136.596C401.224 136.596 401.77 136.458 402.25 136.182C402.742 135.894 403.126 135.498 403.402 134.994C403.678 134.478 403.816 133.89 403.816 133.23C403.816 132.57 403.678 131.988 403.402 131.484C403.126 130.968 402.742 130.572 402.25 130.296C401.77 130.02 401.224 129.882 400.612 129.882C400 129.882 399.448 130.02 398.956 130.296C398.476 130.572 398.092 130.968 397.804 131.484C397.528 131.988 397.39 132.57 397.39 133.23C397.39 133.89 397.528 134.478 397.804 134.994C398.092 135.498 398.476 135.894 398.956 136.182C399.448 136.458 400 136.596 400.612 136.596ZM414.555 133.05C415.791 133.362 416.409 134.136 416.409 135.372C416.409 136.212 416.091 136.86 415.455 137.316C414.831 137.772 413.895 138 412.647 138H408.057V128.46H412.485C413.613 128.46 414.495 128.676 415.131 129.108C415.767 129.528 416.085 130.128 416.085 130.908C416.085 131.412 415.947 131.85 415.671 132.222C415.407 132.582 415.035 132.858 414.555 133.05ZM409.749 132.564H412.341C413.001 132.564 413.499 132.444 413.835 132.204C414.183 131.964 414.357 131.616 414.357 131.16C414.357 130.248 413.685 129.792 412.341 129.792H409.749V132.564ZM412.521 136.668C413.241 136.668 413.781 136.554 414.141 136.326C414.501 136.098 414.681 135.744 414.681 135.264C414.681 134.772 414.513 134.406 414.177 134.166C413.853 133.926 413.337 133.806 412.629 133.806H409.749V136.668H412.521ZM423.2 138.108C422.252 138.108 421.4 137.898 420.644 137.478C419.888 137.058 419.294 136.482 418.862 135.75C418.442 135.006 418.232 134.166 418.232 133.23C418.232 132.294 418.442 131.46 418.862 130.728C419.294 129.984 419.888 129.408 420.644 129C421.4 128.58 422.252 128.37 423.2 128.37C424.148 128.37 424.994 128.58 425.738 129C426.494 129.408 427.082 129.984 427.502 130.728C427.934 131.46 428.15 132.294 428.15 133.23C428.15 134.166 427.934 135.006 427.502 135.75C427.082 136.482 426.494 137.058 425.738 137.478C424.994 137.898 424.148 138.108 423.2 138.108ZM423.2 136.596C423.812 136.596 424.358 136.458 424.838 136.182C425.33 135.894 425.714 135.498 425.99 134.994C426.266 134.478 426.404 133.89 426.404 133.23C426.404 132.57 426.266 131.988 425.99 131.484C425.714 130.968 425.33 130.572 424.838 130.296C424.358 130.02 423.812 129.882 423.2 129.882C422.588 129.882 422.036 130.02 421.544 130.296C421.064 130.572 420.68 130.968 420.392 131.484C420.116 131.988 419.978 132.57 419.978 133.23C419.978 133.89 420.116 134.478 420.392 134.994C420.68 135.498 421.064 135.894 421.544 136.182C422.036 136.458 422.588 136.596 423.2 136.596ZM435.703 128.37C436.627 128.37 437.455 128.574 438.187 128.982C438.919 129.39 439.489 129.96 439.897 130.692C440.317 131.424 440.527 132.27 440.527 133.23C440.527 134.19 440.317 135.042 439.897 135.786C439.489 136.518 438.919 137.088 438.187 137.496C437.455 137.904 436.627 138.108 435.703 138.108C435.019 138.108 434.389 137.976 433.813 137.712C433.249 137.448 432.769 137.064 432.373 136.56V141.492H430.645V128.46H432.301V129.972C432.685 129.444 433.171 129.048 433.759 128.784C434.347 128.508 434.995 128.37 435.703 128.37ZM435.559 136.596C436.171 136.596 436.717 136.458 437.197 136.182C437.689 135.894 438.073 135.498 438.349 134.994C438.637 134.478 438.781 133.89 438.781 133.23C438.781 132.57 438.637 131.988 438.349 131.484C438.073 130.968 437.689 130.572 437.197 130.296C436.717 130.02 436.171 129.882 435.559 129.882C434.959 129.882 434.413 130.026 433.921 130.314C433.441 130.59 433.057 130.98 432.769 131.484C432.493 131.988 432.355 132.57 432.355 133.23C432.355 133.89 432.493 134.478 432.769 134.994C433.045 135.498 433.429 135.894 433.921 136.182C434.413 136.458 434.959 136.596 435.559 136.596ZM446.352 128.37C447.672 128.37 448.68 128.694 449.376 129.342C450.084 129.99 450.438 130.956 450.438 132.24V138H448.8V136.74C448.512 137.184 448.098 137.526 447.558 137.766C447.03 137.994 446.4 138.108 445.668 138.108C444.6 138.108 443.742 137.85 443.094 137.334C442.458 136.818 442.14 136.14 442.14 135.3C442.14 134.46 442.446 133.788 443.058 133.284C443.67 132.768 444.642 132.51 445.974 132.51H448.71V132.168C448.71 131.424 448.494 130.854 448.062 130.458C447.63 130.062 446.994 129.864 446.154 129.864C445.59 129.864 445.038 129.96 444.498 130.152C443.958 130.332 443.502 130.578 443.13 130.89L442.41 129.594C442.902 129.198 443.49 128.898 444.174 128.694C444.858 128.478 445.584 128.37 446.352 128.37ZM445.956 136.776C446.616 136.776 447.186 136.632 447.666 136.344C448.146 136.044 448.494 135.624 448.71 135.084V133.752H446.046C444.582 133.752 443.85 134.244 443.85 135.228C443.85 135.708 444.036 136.086 444.408 136.362C444.78 136.638 445.296 136.776 445.956 136.776Z" fill="black"/>
<path d="M431 37H625" stroke="#FA002C" stroke-dasharray="6 6"/>
<path d="M431 300H625" stroke="#FA002C" stroke-dasharray="6 6"/>
<path d="M323 0L323 458" stroke="#D6A7AF" stroke-dasharray="6 6"/>
<path d="M1088 212L-6.67572e-06 212" stroke="#D6A7AF" stroke-dasharray="6 6"/>
<path d="M1088 458L-6.67572e-06 458" stroke="#D6A7AF" stroke-dasharray="6 6"/>
</svg>
